<?xml version="1.0" encoding="UTF-8"?>
<svg xmlns="http://www.w3.org/2000/svg" style="display: none;">
   <symbol id="home-icon" viewBox="-1 -1 30 30">
      <path d="M 15 2 A 1 1 0 0 0 14.300781 2.2851562 L 3.3925781 11.207031 A 1 1 0 0 0 3.3554688 11.236328 L 3.3183594 11.267578 L 3.3183594 11.269531 A 1 1 0 0 0 3 12 A 1 1 0 0 0 4 13 L 5 13 L 5 24 C 5 25.105 5.895 26 7 26 L 23 26 C 24.105 26 25 25.105 25 24 L 25 13 L 26 13 A 1 1 0 0 0 27 12 A 1 1 0 0 0 26.681641 11.267578 L 26.666016 11.255859 A 1 1 0 0 0 26.597656 11.199219 L 25 9.8925781 L 25 6 C 25 5.448 24.552 5 24 5 L 23 5 C 22.448 5 22 5.448 22 6 L 22 7.4394531 L 15.677734 2.2675781 A 1 1 0 0 0 15 2 z M 18 15 L 22 15 L 22 23 L 18 23 L 18 15 z"/>
   </symbol>
   
   <symbol id="arturia-icon" viewBox="0 0 982.8 982.6">
      <path d="M491.5,900.8c-225.9,0-409.7-183.7-409.7-409.6A407.67781,407.67781,0,0,1,175.3,231c75.2-91.1,189-149.2,316-149.2C717.2,81.8,901,265.5,901,491.4a407.83123,407.83123,0,0,1-93.6,260.3c-75.1,91-188.9,149.1-315.9,149.1M982.8,491.2C982.8,220.4,762.4,0,491.5,0,313.7,0,157.6,94.9,71.3,236.8A488.48546,488.48546,0,0,0,0,491.4C0,762.3,220.4,982.6,491.3,982.6c160.9,0,304-77.7,393.6-197.6a487.748,487.748,0,0,0,97.9-293.8"/><path d="M490.8,255.6c11.7,4.8,31.1,67,46.6,117,5.6,18.1,11.6,37.2,18,57,3.2,9.8,6.4,19.6,9.6,29.3-25.6,17.3-50.1,31-73.6,31-23.7,0-48.2-13.4-73.7-30.5,2.4-7.1,4.7-14.2,7.1-21.4,6.8-20.7,13.1-40.9,19-59.9,16.4-52.3,36.7-117.3,47-122.5M666.6,487.2c19-11.7,36.4-19.9,50.8-19.9h12.4V385.6H717.4c-27.5,0-52.9,9.8-77.1,23.3-1.9-5.6-3.7-11.1-5.6-16.7l-9.3-27.7c-33.8-101.9-65.8-198.1-133.9-198.1s-100.1,96.2-133.9,198.1l-15,44.7c-24.2-13.7-49.5-23.6-76.9-23.6h-12.4v81.7h12.4c14,0,31.4,8.4,50.4,20.2-26.4,76.6-54.7,153.1-68.5,159.4h-12.4V743.6h12.4c55.9,0,101.9-92.5,143.5-206.8,31.6,19.3,65.4,35.2,100.5,35.2,34.8,0,68.6-16.1,100.3-35.6C634.5,653.9,679.7,743.6,735.5,743.6h12.4V660.4l.9-12.3H736.4c-15.3-5.9-44.2-85.5-69.8-160.9"/>
   </symbol>
   
   <symbol id="checkmark-icon" viewBox="0 0 24 24">    
      <path d="M 12 2 C 6.486 2 2 6.486 2 12 C 2 17.514 6.486 22 12 22 C 17.514 22 22 17.514 22 12 C 22 10.874 21.803984 9.7942031 21.458984 8.7832031 L 19.839844 10.402344 C 19.944844 10.918344 20 11.453 20 12 C 20 16.411 16.411 20 12 20 C 7.589 20 4 16.411 4 12 C 4 7.589 7.589 4 12 4 C 13.633 4 15.151922 4.4938906 16.419922 5.3378906 L 17.851562 3.90625 C 16.203562 2.71225 14.185 2 12 2 z M 21.292969 3.2929688 L 11 13.585938 L 7.7070312 10.292969 L 6.2929688 11.707031 L 11 16.414062 L 22.707031 4.7070312 L 21.292969 3.2929688 z"/>
   </symbol>
   
    <symbol id="cross-icon" viewBox="0 0 24 24">    
      <path d="M512 928c229.44 0 416-186.56 416-416S741.44 96 512 96 96 282.56 96 512s186.56 416 416 416z m0-896c264.672 0 480 215.36 480 480s-215.328 480-480 480C247.36 992 32 776.64 32 512S247.36 32 512 32z m214.72 265.28c12.512 12.48 12.512 32.96 0 45.44L557.44 512l169.28 169.28c6.08 6.4 9.28 14.4 9.28 22.72 0 8.32-3.2 16.32-9.28 22.72A32.64 32.64 0 0 1 704 736c-8.32 0-16.32-3.2-22.72-9.28L512 557.44l-169.28 169.28A32.64 32.64 0 0 1 320 736c-8.32 0-16.32-3.2-22.72-9.28-12.48-12.48-12.48-32.96 0-45.44L466.56 512l-169.28-169.28c-6.048-6.4-9.28-14.4-9.28-22.72 0-8.32 3.232-16.32 9.28-22.72 12.512-12.48 32.96-12.48 45.44 0L512 466.56l169.28-169.28c12.512-12.48 32.96-12.48 45.44 0z"  />   
   </symbol>
</svg>
