<?xml version="1.0" encoding="UTF-8"?>
<svg xmlns="http://www.w3.org/2000/svg" style="display: none;">
   <symbol id="home-icon" viewBox="-1 -1 30 30">
      <path d="M 15 2 A 1 1 0 0 0 14.300781 2.2851562 L 3.3925781 11.207031 A 1 1 0 0 0 3.3554688 11.236328 L 3.3183594 11.267578 L 3.3183594 11.269531 A 1 1 0 0 0 3 12 A 1 1 0 0 0 4 13 L 5 13 L 5 24 C 5 25.105 5.895 26 7 26 L 23 26 C 24.105 26 25 25.105 25 24 L 25 13 L 26 13 A 1 1 0 0 0 27 12 A 1 1 0 0 0 26.681641 11.267578 L 26.666016 11.255859 A 1 1 0 0 0 26.597656 11.199219 L 25 9.8925781 L 25 6 C 25 5.448 24.552 5 24 5 L 23 5 C 22.448 5 22 5.448 22 6 L 22 7.4394531 L 15.677734 2.2675781 A 1 1 0 0 0 15 2 z M 18 15 L 22 15 L 22 23 L 18 23 L 18 15 z"/>
   </symbol>
   
   <symbol id="arturia-icon" viewBox="-1 -1 30 30">
      <path d="M499.7,909.2c-225.9,0-409.7-183.7-409.7-409.6c0-98.7,35.1-189.4,93.5-260.2c75.2-91.1,189-149.2,316-149.2
         c225.9,0,409.7,183.7,409.7,409.6c0,98.8-35.2,189.5-93.6,260.3C740.5,851.1,626.7,909.2,499.7,909.2 M991,499.6
         C991,228.8,770.6,8.4,499.7,8.4c-177.8,0-333.9,94.9-420.2,236.8C34.3,319.5,8.2,406.7,8.2,499.8C8.2,770.7,228.6,991,499.5,991
         c160.9,0,304-77.7,393.6-197.6C954.6,711.5,991,609.7,991,499.6"/>

   </symbol>
</svg>
