<?xml version="1.0" encoding="UTF-8"?>
<svg xmlns="http://www.w3.org/2000/svg" style="display: none;">
   <symbol id="home-icon" viewBox="-1 -1 30 30">
      <path d="M 15 2 A 1 1 0 0 0 14.300781 2.2851562 L 3.3925781 11.207031 A 1 1 0 0 0 3.3554688 11.236328 L 3.3183594 11.267578 L 3.3183594 11.269531 A 1 1 0 0 0 3 12 A 1 1 0 0 0 4 13 L 5 13 L 5 24 C 5 25.105 5.895 26 7 26 L 23 26 C 24.105 26 25 25.105 25 24 L 25 13 L 26 13 A 1 1 0 0 0 27 12 A 1 1 0 0 0 26.681641 11.267578 L 26.666016 11.255859 A 1 1 0 0 0 26.597656 11.199219 L 25 9.8925781 L 25 6 C 25 5.448 24.552 5 24 5 L 23 5 C 22.448 5 22 5.448 22 6 L 22 7.4394531 L 15.677734 2.2675781 A 1 1 0 0 0 15 2 z M 18 15 L 22 15 L 22 23 L 18 23 L 18 15 z"/>
   </symbol>
   
   <symbol id="arturia-icon" viewBox="0 0 982.8 982.6">
      <path d="M491.5,900.8c-225.9,0-409.7-183.7-409.7-409.6A407.67781,407.67781,0,0,1,175.3,231c75.2-91.1,189-149.2,316-149.2C717.2,81.8,901,265.5,901,491.4a407.83123,407.83123,0,0,1-93.6,260.3c-75.1,91-188.9,149.1-315.9,149.1M982.8,491.2C982.8,220.4,762.4,0,491.5,0,313.7,0,157.6,94.9,71.3,236.8A488.48546,488.48546,0,0,0,0,491.4C0,762.3,220.4,982.6,491.3,982.6c160.9,0,304-77.7,393.6-197.6a487.748,487.748,0,0,0,97.9-293.8"/><path d="M490.8,255.6c11.7,4.8,31.1,67,46.6,117,5.6,18.1,11.6,37.2,18,57,3.2,9.8,6.4,19.6,9.6,29.3-25.6,17.3-50.1,31-73.6,31-23.7,0-48.2-13.4-73.7-30.5,2.4-7.1,4.7-14.2,7.1-21.4,6.8-20.7,13.1-40.9,19-59.9,16.4-52.3,36.7-117.3,47-122.5M666.6,487.2c19-11.7,36.4-19.9,50.8-19.9h12.4V385.6H717.4c-27.5,0-52.9,9.8-77.1,23.3-1.9-5.6-3.7-11.1-5.6-16.7l-9.3-27.7c-33.8-101.9-65.8-198.1-133.9-198.1s-100.1,96.2-133.9,198.1l-15,44.7c-24.2-13.7-49.5-23.6-76.9-23.6h-12.4v81.7h12.4c14,0,31.4,8.4,50.4,20.2-26.4,76.6-54.7,153.1-68.5,159.4h-12.4V743.6h12.4c55.9,0,101.9-92.5,143.5-206.8,31.6,19.3,65.4,35.2,100.5,35.2,34.8,0,68.6-16.1,100.3-35.6C634.5,653.9,679.7,743.6,735.5,743.6h12.4V660.4l.9-12.3H736.4c-15.3-5.9-44.2-85.5-69.8-160.9"/>
   </symbol>
   
   <symbol id="empty-circle-icon" viewBox="0 0 1024 1024">    
      <path d="M512 85.333333a426.666667 426.666667 0 1 0 426.666667 426.666667A426.666667 426.666667 0 0 0 512 85.333333z m0 768a341.333333 341.333333 0 1 1 341.333333-341.333333 341.333333 341.333333 0 0 1-341.333333 341.333333z"  />
   </symbol>
   
    <symbol id="full-circle-icon" viewBox="0 0 1024 1024">    
      <path d="M950.857143 512q0 119.428571-58.857143 220.285714t-159.714286 159.714286-220.285714 58.857143-220.285714-58.857143-159.714286-159.714286-58.857143-220.285714 58.857143-220.285714 159.714286-159.714286 220.285714-58.857143 220.285714 58.857143 159.714286 159.714286 58.857143 220.285714z"  />
   </symbol>
   
   <symbol id="arturia-icon" viewBox="0 0 152 152">    
      <path d="M76 0.0350952C34.0056 0.0350952 0 34.0486 0 76.0174C0 117.986 34.0056 152 76 152C117.959 152 152 117.986 152 76.0174C151.965 34.0486 117.959 0.0350952 76 0.0350952ZM76 142.984C38.9898 142.984 9.01395 113.001 9.01395 76.0174C9.01395 39.0339 38.9898 9.05114 76 9.05114C112.975 9.05114 142.986 39.0339 142.986 76.0174C142.951 113.001 112.975 142.984 76 142.984Z" fill="#181817"/>
      <path d="M98.553 60.1423C92.367 41.8274 87.1354 22.8406 76.0005 22.8406C64.8656 22.8406 59.634 41.792 53.4479 60.1423C45.9186 82.488 38.6014 105.293 34.1475 105.293V117.633C45.1409 117.633 54.8619 90.1605 62.5326 66.6834C68.2237 49.217 71.9707 33.9428 75.9651 33.9428C79.9595 33.9428 83.4591 48.4038 88.9382 65.2338C96.6796 88.9937 106.542 117.633 117.783 117.633V105.505C113.117 105.505 106.082 82.488 98.553 60.1423Z" fill="#181817"/>
      <path d="M76.0001 78.3512C63.5573 78.3512 51.6094 60.4606 37.2578 60.4606V70.2191C47.0848 70.2191 61.3304 88.1805 76.0001 88.1805C90.4578 88.1805 104.668 70.2191 114.742 70.2191V60.4606C100.179 60.4606 88.2308 78.3512 76.0001 78.3512Z" fill="#181817"/>
      <path d="M76 0C34.0409 0 0 34.0135 0 75.9823C0 117.951 34.0056 151.965 76 151.965C117.959 151.965 152 117.951 152 75.9823C152 34.0135 117.994 0 76 0ZM76 142.949C39.0251 142.949 9.01395 112.966 9.01395 75.9823C9.01395 38.9988 38.9898 9.01605 76 9.01605C112.975 9.01605 142.986 38.9988 142.986 75.9823C142.986 112.966 113.01 142.949 76 142.949Z" fill="#181817"/>
      <path d="M98.553 60.107C92.367 41.792 87.1354 22.8053 76.0005 22.8053C64.9009 22.8053 59.634 41.7567 53.4479 60.107C45.9186 82.4527 38.6014 105.258 34.1475 105.258V117.598C45.1409 117.598 54.8619 90.1251 62.5326 66.6481C68.2237 49.1817 71.9707 33.9074 76.0005 33.9074C79.9949 33.9074 83.4944 48.3685 88.9735 65.1984C96.7149 88.9584 106.577 117.598 117.818 117.598V105.47C113.117 105.47 106.118 82.488 98.553 60.107Z" fill="#181817"/>
      <path d="M76.0353 78.3159C63.5925 78.3159 51.6446 60.4252 37.293 60.4252V70.1838C47.1199 70.1838 61.3655 88.1452 76.0353 88.1452C90.493 88.1452 104.703 70.1838 114.778 70.1838V60.4252C100.214 60.4252 88.266 78.3159 76.0353 78.3159Z" fill="#181817"/>
   </symbol>
</svg>
